<svg width="100" height="85" viewBox="0 0 117 94" fill="none" xmlns="http://www.w3.org/2000/svg">
<path d="M5.59088 86.412C2.50312 83.2517 2.50312 78.128 5.59088 74.9678L72.4092 6.58159C75.4969 3.42138 80.5032 3.42137 83.5909 6.58158L91.0001 14.1646L18.5909 88.2729C15.5031 91.4331 10.4969 91.4331 7.40913 88.2729L5.59088 86.412Z" fill="url(#paint0_linear_355_132)"/>
<path d="M26 80.6899L98.4092 6.58159C101.497 3.42138 106.503 3.42137 109.591 6.58158L111.409 8.44251C114.497 11.6027 114.497 16.7264 111.409 19.8866L44.5909 88.2729C41.5031 91.4331 36.4969 91.4331 33.4091 88.2729L26 80.6899Z" fill="url(#paint1_linear_355_132)"/>
<defs>
<linearGradient id="paint0_linear_355_132" x1="82.2719" y1="22.9685" x2="34.3255" y2="68.8971" gradientUnits="userSpaceOnUse">
<stop stop-color="#00FFF0"/>
<stop offset="1" stop-color="#00DED1"/>
</linearGradient>
<linearGradient id="paint1_linear_355_132" x1="99.2779" y1="6.97477" x2="37.6824" y2="66.6987" gradientUnits="userSpaceOnUse">
<stop stop-color="#00A385"/>
<stop offset="1" stop-color="#00C09E"/>
</linearGradient>
</defs>
</svg>
