<svg width="32" height="32" viewBox="0 0 32 32" fill="none" xmlns="http://www.w3.org/2000/svg">
<g clip-path="url(#clip0_380_2)">
<path d="M1.77778 29.7142C0.795939 28.4519 0.795938 26.4052 1.77778 25.1428L17.7778 4.57139C19.7415 2.04666 22.9252 2.04666 24.8889 4.57139V4.57139L5.33334 29.7142C4.3515 30.9766 2.75962 30.9766 1.77778 29.7142V29.7142Z" fill="url(#paint0_linear_380_2)"/>
<path d="M7.11108 27.4285L26.6666 2.28568C27.6485 1.02331 29.2404 1.02331 30.2222 2.28568V2.28568C31.204 3.54804 31.204 5.59474 30.2222 6.8571L14.2222 27.4285C12.2585 29.9533 9.07476 29.9533 7.11108 27.4285V27.4285Z" fill="url(#paint1_linear_380_2)"/>
</g>
<defs>
<linearGradient id="paint0_linear_380_2" x1="22.5017" y1="7.59631" x2="6.60078" y2="19.7212" gradientUnits="userSpaceOnUse">
<stop stop-color="#00FFF0"/>
<stop offset="1" stop-color="#00DED1"/>
</linearGradient>
<linearGradient id="paint1_linear_380_2" x1="27.1529" y1="2.10108" x2="6.67022" y2="17.9105" gradientUnits="userSpaceOnUse">
<stop stop-color="#00A385"/>
<stop offset="1" stop-color="#00C09E"/>
</linearGradient>
<clipPath id="clip0_380_2">
<rect width="32" height="32" fill="white"/>
</clipPath>
</defs>
</svg>
