<svg width="441" height="49" viewBox="0 0 441 49" fill="none" xmlns="http://www.w3.org/2000/svg">
<path d="M23.952 32.496H11.376L9.36 38.448H0.768L12.96 4.752H22.464L34.656 38.448H25.968L23.952 32.496ZM21.84 26.16L17.664 13.824L13.536 26.16H21.84Z" fill="#141414"/>
<path d="M46.5746 2.928V38.448H38.3666V2.928H46.5746Z" fill="#141414"/>
<path d="M77.7709 24.624C77.7709 25.392 77.7229 26.192 77.6269 27.024H59.0509C59.1789 28.688 59.7069 29.968 60.6349 30.864C61.5949 31.728 62.7629 32.16 64.1389 32.16C66.1869 32.16 67.6109 31.296 68.4109 29.568H77.1469C76.6989 31.328 75.8829 32.912 74.6989 34.32C73.5469 35.728 72.0909 36.832 70.3309 37.632C68.5709 38.432 66.6029 38.832 64.4269 38.832C61.8029 38.832 59.4669 38.272 57.4189 37.152C55.3709 36.032 53.7709 34.432 52.6189 32.352C51.4669 30.272 50.8909 27.84 50.8909 25.056C50.8909 22.272 51.4509 19.84 52.5709 17.76C53.7229 15.68 55.3229 14.08 57.3709 12.96C59.4189 11.84 61.7709 11.28 64.4269 11.28C67.0189 11.28 69.3229 11.824 71.3389 12.912C73.3549 14 74.9229 15.552 76.0429 17.568C77.1949 19.584 77.7709 21.936 77.7709 24.624ZM69.3709 22.464C69.3709 21.056 68.8909 19.936 67.9309 19.104C66.9709 18.272 65.7709 17.856 64.3309 17.856C62.9549 17.856 61.7869 18.256 60.8269 19.056C59.8989 19.856 59.3229 20.992 59.0989 22.464H69.3709Z" fill="#141414"/>
<path d="M97.941 38.448L92.805 31.008L88.485 38.448H79.605L88.437 24.768L79.365 11.664H88.581L93.717 19.056L98.037 11.664H106.917L97.941 25.152L107.157 38.448H97.941Z" fill="#141414"/>
<path d="M121.216 38.832C118.88 38.832 116.8 38.432 114.976 37.632C113.152 36.832 111.712 35.744 110.656 34.368C109.6 32.96 109.008 31.392 108.88 29.664H116.992C117.088 30.592 117.52 31.344 118.288 31.92C119.056 32.496 120 32.784 121.12 32.784C122.144 32.784 122.928 32.592 123.472 32.208C124.048 31.792 124.336 31.264 124.336 30.624C124.336 29.856 123.936 29.296 123.136 28.944C122.336 28.56 121.04 28.144 119.248 27.696C117.328 27.248 115.728 26.784 114.448 26.304C113.168 25.792 112.064 25.008 111.136 23.952C110.208 22.864 109.744 21.408 109.744 19.584C109.744 18.048 110.16 16.656 110.992 15.408C111.856 14.128 113.104 13.12 114.736 12.384C116.4 11.648 118.368 11.28 120.64 11.28C124 11.28 126.64 12.112 128.56 13.776C130.512 15.44 131.632 17.648 131.92 20.4H124.336C124.208 19.472 123.792 18.736 123.088 18.192C122.416 17.648 121.52 17.376 120.4 17.376C119.44 17.376 118.704 17.568 118.192 17.952C117.68 18.304 117.424 18.8 117.424 19.44C117.424 20.208 117.824 20.784 118.624 21.168C119.456 21.552 120.736 21.936 122.464 22.32C124.448 22.832 126.064 23.344 127.312 23.856C128.56 24.336 129.648 25.136 130.576 26.256C131.536 27.344 132.032 28.816 132.064 30.672C132.064 32.24 131.616 33.648 130.72 34.896C129.856 36.112 128.592 37.072 126.928 37.776C125.296 38.48 123.392 38.832 121.216 38.832Z" fill="#141414"/>
<path d="M135.453 25.008C135.453 22.256 135.965 19.84 136.989 17.76C138.045 15.68 139.469 14.08 141.261 12.96C143.053 11.84 145.053 11.28 147.261 11.28C149.149 11.28 150.797 11.664 152.205 12.432C153.645 13.2 154.749 14.208 155.517 15.456V11.664H163.725V38.448H155.517V34.656C154.717 35.904 153.597 36.912 152.157 37.68C150.749 38.448 149.101 38.832 147.213 38.832C145.037 38.832 143.053 38.272 141.261 37.152C139.469 36 138.045 34.384 136.989 32.304C135.965 30.192 135.453 27.76 135.453 25.008ZM155.517 25.056C155.517 23.008 154.941 21.392 153.789 20.208C152.669 19.024 151.293 18.432 149.661 18.432C148.029 18.432 146.637 19.024 145.485 20.208C144.365 21.36 143.805 22.96 143.805 25.008C143.805 27.056 144.365 28.688 145.485 29.904C146.637 31.088 148.029 31.68 149.661 31.68C151.293 31.68 152.669 31.088 153.789 29.904C154.941 28.72 155.517 27.104 155.517 25.056Z" fill="#141414"/>
<path d="M185.984 11.376C189.12 11.376 191.616 12.4 193.472 14.448C195.36 16.464 196.304 19.248 196.304 22.8V38.448H188.144V23.904C188.144 22.112 187.68 20.72 186.752 19.728C185.824 18.736 184.576 18.24 183.008 18.24C181.44 18.24 180.191 18.736 179.264 19.728C178.336 20.72 177.872 22.112 177.872 23.904V38.448H169.663V11.664H177.872V15.216C178.704 14.032 179.824 13.104 181.232 12.432C182.64 11.728 184.224 11.376 185.984 11.376Z" fill="#141414"/>
<path d="M200.375 25.008C200.375 22.256 200.887 19.84 201.911 17.76C202.967 15.68 204.391 14.08 206.183 12.96C207.975 11.84 209.975 11.28 212.183 11.28C213.943 11.28 215.543 11.648 216.983 12.384C218.455 13.12 219.607 14.112 220.439 15.36V2.928H228.647V38.448H220.439V34.608C219.671 35.888 218.567 36.912 217.127 37.68C215.719 38.448 214.071 38.832 212.183 38.832C209.975 38.832 207.975 38.272 206.183 37.152C204.391 36 202.967 34.384 201.911 32.304C200.887 30.192 200.375 27.76 200.375 25.008ZM220.439 25.056C220.439 23.008 219.863 21.392 218.711 20.208C217.591 19.024 216.215 18.432 214.583 18.432C212.951 18.432 211.559 19.024 210.407 20.208C209.287 21.36 208.727 22.96 208.727 25.008C208.727 27.056 209.287 28.688 210.407 29.904C211.559 31.088 212.951 31.68 214.583 31.68C216.215 31.68 217.591 31.088 218.711 29.904C219.863 28.72 220.439 27.104 220.439 25.056Z" fill="#141414"/>
<path d="M259.833 24.624C259.833 25.392 259.785 26.192 259.689 27.024H241.113C241.241 28.688 241.769 29.968 242.697 30.864C243.657 31.728 244.825 32.16 246.201 32.16C248.249 32.16 249.673 31.296 250.473 29.568H259.209C258.761 31.328 257.945 32.912 256.761 34.32C255.609 35.728 254.153 36.832 252.393 37.632C250.633 38.432 248.665 38.832 246.489 38.832C243.865 38.832 241.529 38.272 239.481 37.152C237.433 36.032 235.833 34.432 234.681 32.352C233.529 30.272 232.953 27.84 232.953 25.056C232.953 22.272 233.513 19.84 234.633 17.76C235.785 15.68 237.385 14.08 239.433 12.96C241.481 11.84 243.833 11.28 246.489 11.28C249.081 11.28 251.385 11.824 253.401 12.912C255.417 14 256.985 15.552 258.105 17.568C259.257 19.584 259.833 21.936 259.833 24.624ZM251.433 22.464C251.433 21.056 250.953 19.936 249.993 19.104C249.033 18.272 247.833 17.856 246.393 17.856C245.017 17.856 243.849 18.256 242.889 19.056C241.961 19.856 241.385 20.992 241.161 22.464H251.433Z" fill="#141414"/>
<path d="M272.372 16.128C273.332 14.656 274.531 13.504 275.971 12.672C277.411 11.808 279.012 11.376 280.772 11.376V20.064H278.516C276.467 20.064 274.931 20.512 273.908 21.408C272.884 22.272 272.372 23.808 272.372 26.016V38.448H264.164V11.664H272.372V16.128Z" fill="#141414"/>
<path d="M326.499 4.752L314.547 38.448H304.275L292.323 4.752H301.059L309.411 30.192L317.811 4.752H326.499Z" fill="#141414"/>
<path d="M334.057 8.88C332.617 8.88 331.433 8.464 330.505 7.632C329.609 6.768 329.161 5.712 329.161 4.464C329.161 3.184 329.609 2.128 330.505 1.296C331.433 0.432 332.617 0 334.057 0C335.465 0 336.617 0.432 337.513 1.296C338.441 2.128 338.905 3.184 338.905 4.464C338.905 5.712 338.441 6.768 337.513 7.632C336.617 8.464 335.465 8.88 334.057 8.88ZM338.137 11.664V38.448H329.929V11.664H338.137Z" fill="#141414"/>
<path d="M342.453 25.056C342.453 22.272 343.013 19.84 344.133 17.76C345.285 15.68 346.869 14.08 348.885 12.96C350.933 11.84 353.269 11.28 355.893 11.28C359.253 11.28 362.053 12.16 364.293 13.92C366.565 15.68 368.053 18.16 368.757 21.36H360.021C359.285 19.312 357.861 18.288 355.749 18.288C354.245 18.288 353.045 18.88 352.149 20.064C351.253 21.216 350.805 22.88 350.805 25.056C350.805 27.232 351.253 28.912 352.149 30.096C353.045 31.248 354.245 31.824 355.749 31.824C357.861 31.824 359.285 30.8 360.021 28.752H368.757C368.053 31.888 366.565 34.352 364.293 36.144C362.021 37.936 359.221 38.832 355.893 38.832C353.269 38.832 350.933 38.272 348.885 37.152C346.869 36.032 345.285 34.432 344.133 32.352C343.013 30.272 342.453 27.84 342.453 25.056Z" fill="#141414"/>
<path d="M388.076 31.488V38.448H383.9C380.924 38.448 378.604 37.728 376.94 36.288C375.276 34.816 374.444 32.432 374.444 29.136V18.48H371.18V11.664H374.444V5.136H382.652V11.664H388.028V18.48H382.652V29.232C382.652 30.032 382.844 30.608 383.228 30.96C383.612 31.312 384.252 31.488 385.148 31.488H388.076Z" fill="#141414"/>
<path d="M404.84 38.832C402.216 38.832 399.848 38.272 397.736 37.152C395.656 36.032 394.008 34.432 392.792 32.352C391.608 30.272 391.016 27.84 391.016 25.056C391.016 22.304 391.624 19.888 392.84 17.808C394.056 15.696 395.72 14.08 397.832 12.96C399.944 11.84 402.312 11.28 404.936 11.28C407.56 11.28 409.928 11.84 412.04 12.96C414.152 14.08 415.816 15.696 417.032 17.808C418.248 19.888 418.856 22.304 418.856 25.056C418.856 27.808 418.232 30.24 416.984 32.352C415.768 34.432 414.088 36.032 411.944 37.152C409.832 38.272 407.464 38.832 404.84 38.832ZM404.84 31.728C406.408 31.728 407.736 31.152 408.824 30C409.944 28.848 410.504 27.2 410.504 25.056C410.504 22.912 409.96 21.264 408.872 20.112C407.816 18.96 406.504 18.384 404.936 18.384C403.336 18.384 402.008 18.96 400.952 20.112C399.896 21.232 399.368 22.88 399.368 25.056C399.368 27.2 399.88 28.848 400.904 30C401.96 31.152 403.272 31.728 404.84 31.728Z" fill="#141414"/>
<path d="M431.418 16.128C432.378 14.656 433.578 13.504 435.018 12.672C436.458 11.808 438.058 11.376 439.818 11.376V20.064H437.562C435.514 20.064 433.978 20.512 432.954 21.408C431.93 22.272 431.418 23.808 431.418 26.016V38.448H423.21V11.664H431.418V16.128Z" fill="#141414"/>
<path d="M0 46.448C0 45.3434 0.895431 44.448 2 44.448H439C440.105 44.448 441 45.3434 441 46.448C441 47.5526 440.105 48.448 439 48.448H2C0.895427 48.448 0 47.5526 0 46.448Z" fill="url(#paint0_linear_355_28)"/>
<defs>
<linearGradient id="paint0_linear_355_28" x1="86.8941" y1="44.4481" x2="360.133" y2="44.448" gradientUnits="userSpaceOnUse">
<stop stop-color="#00FFF0"/>
<stop offset="1" stop-color="#00E0B8"/>
</linearGradient>
</defs>
</svg>
